<?xml version="1.0" encoding="UTF-8"?>
<svg width="96px" height="96px" viewBox="0 0 96 96" version="1.1" xmlns="http://www.w3.org/2000/svg" xmlns:xlink="http://www.w3.org/1999/xlink">
    <title>1</title>
    <defs>
        <radialGradient cx="84.0278567%" cy="76.0968328%" fx="84.0278567%" fy="76.0968328%" r="92.4782999%" gradientTransform="translate(0.840279,0.760968),rotate(-140.341119),scale(1.000000,1.353630),translate(-0.840279,-0.760968)" id="radialGradient-1">
            <stop stop-color="#917439" offset="0%"></stop>
            <stop stop-color="#917439" offset="54.1321228%"></stop>
            <stop stop-color="#917439" offset="100%"></stop>
        </radialGradient>
        <linearGradient x1="50%" y1="0%" x2="50%" y2="100%" id="linearGradient-2">
            <stop stop-color="#FFFFFF" offset="0%"></stop>
            <stop stop-color="#FFFFFF" offset="100%"></stop>
        </linearGradient>
    </defs>
    <g id="1" stroke="none" stroke-width="1" fill="none" fill-rule="evenodd">
        <g id="geniidata" fill-rule="nonzero">
            <circle id="bg" fill="url(#radialGradient-1)" cx="48" cy="48" r="48"></circle>
            <path d="M64.8358125,23.6254687 L71.877324,27.6900315 C72.3305242,27.9516231 72.7611825,28.2419542 73.167534,28.5579689 L51.90075,40.8362812 L51.90075,40.8331875 L47.3091986,43.4822081 C45.2904712,44.6691345 43.9170049,46.8346016 43.8416029,49.3262475 L43.8383336,49.3261886 L43.83825,69.9585937 L47.961375,72.3390937 L69.15075,60.105375 L69.15075,50.3625937 L52.27575,60.105375 L52.27575,50.3625937 L77.4131411,35.8496612 C77.4856196,36.3470703 77.525334,36.8524667 77.5306376,37.3629981 L77.53125,37.4809029 L77.53125,58.5191906 C77.53125,62.5178647 75.4189185,66.2158076 71.9818811,68.248962 L71.877324,68.3100619 L69.15075,69.8837812 L69.15075,69.84825 L60.71325,74.7195937 L60.71325,74.7541875 L53.653926,78.8290657 C50.1903,80.8284491 45.930909,80.848443 42.4512769,78.889047 L42.346074,78.8290657 L35.40075,74.82 L35.40075,46.8560625 L35.4049446,46.8560389 C35.5134462,42.7936612 37.7605601,39.2641309 41.0621932,37.3508069 L41.1620625,37.2935625 L64.8358125,23.6254687 Z M42.346074,17.1709344 C45.8097923,15.171551 50.0691844,15.1515571 53.5487258,17.1109529 L53.653926,17.1709344 L56.3975625,18.7545937 L30.1486515,33.9094131 C28.2868853,35.1273118 27.0383934,37.2039385 26.9666027,39.5762475 L26.9633336,39.5761886 L26.96325,69.9495937 L24.122676,68.3099685 C20.9541181,66.4809982 18.8873636,63.2471985 18.5256136,59.6528674 L18.52575,40.6198125 L18.46875,40.6527187 L18.46875,37.4808094 C18.46875,33.4822276 20.5811732,29.7841944 24.0181215,27.7510379 L24.122676,27.6899381 L42.346074,17.1709344 Z" fill="url(#linearGradient-2)"></path>
        </g>
    </g>
</svg>