<?xml version="1.0" encoding="UTF-8"?>
<svg width="80" height="16" viewBox="0 0 408 96" version="1.1" xmlns="http://www.w3.org/2000/svg" xmlns:xlink="http://www.w3.org/1999/xlink">
    <title>2</title>
    <defs>
        <radialGradient cx="84.0278567%" cy="76.0968328%" fx="84.0278567%" fy="76.0968328%" r="92.4782999%" gradientTransform="translate(0.840279,0.760968),rotate(-140.341119),scale(1.000000,1.353630),translate(-0.840279,-0.760968)" id="radialGradient-1">
            <stop stop-color="#1D59E4" offset="0%"></stop>
            <stop stop-color="#4793F9" offset="54.1321228%"></stop>
            <stop stop-color="#6BF4DD" offset="100%"></stop>
        </radialGradient>
        <linearGradient x1="50%" y1="0%" x2="50%" y2="100%" id="linearGradient-2">
            <stop stop-color="#FFFFFF" offset="0%"></stop>
            <stop stop-color="#FFFFFF" offset="100%"></stop>
        </linearGradient>
    </defs>
    <g id="2" stroke="none" stroke-width="1" fill="none" fill-rule="evenodd">
        <g id="a" transform="translate(120.000000, 27.000000)" fill="#FFFFFF">
            <path d="M140.108108,11.6756757 L140.108108,42.8108108 L132.324324,42.8108108 L132.324324,11.6756757 L140.108108,11.6756757 Z M21.4054054,0 C27.0088662,0 32.2783433,2.16802998 36.2319385,5.96626073 L36.5413127,6.26949809 L31.0373464,11.7734644 C28.4967584,9.23287636 25.0707187,7.78378378 21.4054054,7.78378378 C13.8823915,7.78378378 7.78378378,13.8823915 7.78378378,21.4054054 C7.78378378,28.9284193 13.8823915,35.027027 21.4054054,35.027027 C27.5051464,35.027027 32.6684626,31.0177159 34.4038245,25.4906231 L34.4627027,25.2972973 L29.1891892,25.2972973 C24.9714348,25.2972973 21.5372015,21.9426443 21.4091093,17.7559583 L21.4054054,17.5135135 L42.8108108,17.5135135 L42.8108108,21.4054054 C42.8108108,33.2272844 33.2272844,42.8108108 21.4054054,42.8108108 C9.58352644,42.8108108 0,33.2272844 0,21.4054054 C0,9.58352644 9.58352644,0 21.4054054,0 Z M97.2972973,11.6756757 C105.792674,11.6756757 112.698686,18.4805524 112.861911,26.9368826 L112.864865,27.2432432 L112.864865,42.8108108 L105.081081,42.8108108 L105.081081,27.2432432 C105.081081,22.9443782 101.596162,19.4594595 97.2972973,19.4594595 C93.0795429,19.4594595 89.6453096,22.8141124 89.5172175,27.0007985 L89.5135135,27.2432432 L89.5135135,42.8108108 L81.7297297,42.8108108 L81.7297297,11.6756757 C84.275994,11.6756757 86.5366998,12.898297 87.9568146,14.7885073 C90.5579017,12.8339799 93.7923313,11.6756757 97.2972973,11.6756757 Z M62.2702703,11.6756757 C66.4518183,11.6756757 70.3800843,13.3371921 73.2782029,16.2353106 C76.0828337,19.0399415 77.7293564,22.8093307 77.8326653,26.8393941 L77.8378378,31.1351351 L55.5295135,31.1351351 L55.5877443,31.2369379 C56.9086348,33.4423937 59.2903769,34.9395705 62.0278255,35.0233231 C63.855149,35.2171709 66.1105088,34.9541122 68.7939048,34.234147 C71.8250728,33.4208508 74.9416144,35.2188127 75.7548896,38.2499863 C75.7942462,38.3966728 75.8276984,38.5448486 75.8551728,38.6941554 L75.8918919,38.9189189 C71.3513514,41.5135135 66.8108108,42.8108108 62.2702703,42.8108108 C53.6725401,42.8108108 46.7027027,35.8409734 46.7027027,27.2432432 C46.7027027,18.6455131 53.6725401,11.6756757 62.2702703,11.6756757 Z M126.486486,11.6756757 L126.486486,42.8108108 L118.702703,42.8108108 L118.702703,11.6756757 L126.486486,11.6756757 Z M163.459459,0 C175.281338,0 184.864865,9.58352644 184.864865,21.4054054 C184.864865,33.1090656 175.472051,42.6189164 163.813437,42.8079431 L163.459459,42.8108108 L145.945946,42.8108108 L145.945946,0 L163.459459,0 Z M235.459459,0 C239.758325,0 243.243243,3.4849187 243.243243,7.78378378 L243.243243,11.6756757 L254.918919,11.6756757 L254.918919,19.4594595 L243.243243,19.4594595 L243.243243,42.8108108 L235.459459,42.8108108 L235.459459,19.4594595 L223.783784,19.4594595 L223.783784,11.6756757 L235.459459,11.6756757 L235.459459,0 Z M219.891892,11.6756757 L219.891892,42.8108108 C217.345628,42.8108108 215.084922,41.5881895 213.664807,39.6979792 C211.06372,41.6525066 207.82929,42.8108108 204.324324,42.8108108 C195.726594,42.8108108 188.756757,35.8409734 188.756757,27.2432432 C188.756757,18.6455131 195.726594,11.6756757 204.324324,11.6756757 C207.82929,11.6756757 211.06372,12.8339799 213.665704,14.7886794 C215.039684,12.9585092 217.202452,11.7542457 219.649447,11.6793796 L219.891892,11.6756757 Z M288,11.6756757 L288,42.8108108 C285.453736,42.8108108 283.19303,41.5881895 281.772915,39.6979792 C279.171828,41.6525066 275.937398,42.8108108 272.432432,42.8108108 C263.834702,42.8108108 256.864865,35.8409734 256.864865,27.2432432 C256.864865,18.6455131 263.834702,11.6756757 272.432432,11.6756757 C275.937398,11.6756757 279.171828,12.8339799 281.773812,14.7886794 C283.147793,12.9585092 285.31056,11.7542457 287.757555,11.6793796 L288,11.6756757 Z M163.459459,7.78378378 L153.72973,7.78378378 L153.72973,35.027027 L163.459459,35.027027 C170.982473,35.027027 177.081081,28.9284193 177.081081,21.4054054 C177.081081,13.9840539 171.146187,7.94887114 163.763655,7.78711334 L163.459459,7.78378378 Z M204.324324,19.4594595 C200.025459,19.4594595 196.540541,22.9443782 196.540541,27.2432432 C196.540541,31.5421083 200.025459,35.027027 204.324324,35.027027 C208.623189,35.027027 212.108108,31.5421083 212.108108,27.2432432 C212.108108,22.9443782 208.623189,19.4594595 204.324324,19.4594595 Z M272.432432,19.4594595 C268.133567,19.4594595 264.648649,22.9443782 264.648649,27.2432432 C264.648649,31.5421083 268.133567,35.027027 272.432432,35.027027 C276.731298,35.027027 280.216216,31.5421083 280.216216,27.2432432 C280.216216,22.9443782 276.731298,19.4594595 272.432432,19.4594595 Z M62.2702703,19.4594595 C59.4313971,19.4594595 56.9474845,20.9792264 55.5877443,23.2495486 L55.5285405,23.3513514 L69.0139459,23.3513514 C68.7215094,22.8468732 68.3754449,22.3787384 67.9775067,21.9502047 L67.7742366,21.7392769 C66.3213899,20.2864302 64.3662113,19.4594595 62.2702703,19.4594595 Z M138.162162,0 C139.236878,0 140.108108,0.871229676 140.108108,1.94594595 L140.108108,5.83783784 C140.108108,6.91255411 139.236878,7.78378378 138.162162,7.78378378 L134.27027,7.78378378 C133.195554,7.78378378 132.324324,6.91255411 132.324324,5.83783784 L132.324324,1.94594595 C132.324324,0.871229676 133.195554,0 134.27027,0 L138.162162,0 Z M124.540541,0 C125.615257,0 126.486486,0.871229676 126.486486,1.94594595 L126.486486,5.83783784 C126.486486,6.91255411 125.615257,7.78378378 124.540541,7.78378378 L120.648649,7.78378378 C119.573932,7.78378378 118.702703,6.91255411 118.702703,5.83783784 L118.702703,1.94594595 C118.702703,0.871229676 119.573932,0 120.648649,0 L124.540541,0 Z" id="Aa"></path>
        </g>
        <g id="geniidata" fill-rule="nonzero">
            <g>
                <circle id="bg" fill="url(#radialGradient-1)" cx="48" cy="48" r="48"></circle>
                <path d="M64.8358125,23.6254687 L71.877324,27.6900315 C72.3305242,27.9516231 72.7611825,28.2419542 73.167534,28.5579689 L51.90075,40.8362812 L51.90075,40.8331875 L47.3091986,43.4822081 C45.2904712,44.6691345 43.9170049,46.8346016 43.8416029,49.3262475 L43.8383336,49.3261886 L43.83825,69.9585937 L47.961375,72.3390937 L69.15075,60.105375 L69.15075,50.3625937 L52.27575,60.105375 L52.27575,50.3625937 L77.4131411,35.8496612 C77.4856196,36.3470703 77.525334,36.8524667 77.5306376,37.3629981 L77.53125,37.4809029 L77.53125,58.5191906 C77.53125,62.5178647 75.4189185,66.2158076 71.9818811,68.248962 L71.877324,68.3100619 L69.15075,69.8837812 L69.15075,69.84825 L60.71325,74.7195937 L60.71325,74.7541875 L53.653926,78.8290657 C50.1903,80.8284491 45.930909,80.848443 42.4512769,78.889047 L42.346074,78.8290657 L35.40075,74.82 L35.40075,46.8560625 L35.4049446,46.8560389 C35.5134462,42.7936612 37.7605601,39.2641309 41.0621932,37.3508069 L41.1620625,37.2935625 L64.8358125,23.6254687 Z M42.346074,17.1709344 C45.8097923,15.171551 50.0691844,15.1515571 53.5487258,17.1109529 L53.653926,17.1709344 L56.3975625,18.7545937 L30.1486515,33.9094131 C28.2868853,35.1273118 27.0383934,37.2039385 26.9666027,39.5762475 L26.9633336,39.5761886 L26.96325,69.9495937 L24.122676,68.3099685 C20.9541181,66.4809982 18.8873636,63.2471985 18.5256136,59.6528674 L18.52575,40.6198125 L18.46875,40.6527187 L18.46875,37.4808094 C18.46875,33.4822276 20.5811732,29.7841944 24.0181215,27.7510379 L24.122676,27.6899381 L42.346074,17.1709344 Z" fill="url(#linearGradient-2)"></path>
            </g>
        </g>
    </g>
</svg>